<svg width="44" height="44" viewBox="0 0 44 44" fill="none" xmlns="http://www.w3.org/2000/svg">
<g clip-path="url(#clip0_1_15621)">
<path d="M39.3213 37.429C39.474 37.6319 39.567 37.8733 39.5901 38.1261C39.6131 38.379 39.5652 38.6333 39.4517 38.8604C39.3383 39.0875 39.1637 39.2785 38.9477 39.412C38.7317 39.5454 38.4827 39.6159 38.2288 39.6157H5.45381C5.20019 39.6157 4.95159 39.5451 4.73585 39.4117C4.52012 39.2784 4.34577 39.0876 4.23235 38.8608C4.11893 38.6339 4.07092 38.38 4.0937 38.1274C4.11648 37.8748 4.20914 37.6336 4.36131 37.4307C5.57054 35.8095 7.18307 34.533 9.03857 33.7281C8.02148 32.7999 7.30883 31.5857 6.99414 30.2452C6.67946 28.9046 6.77745 27.5002 7.27526 26.2163C7.77307 24.9324 8.64743 23.8291 9.78358 23.051C10.9197 22.273 12.2646 21.8566 13.6416 21.8566C15.0186 21.8566 16.3634 22.273 17.4996 23.051C18.6357 23.8291 19.5101 24.9324 20.0079 26.2163C20.5057 27.5002 20.6037 28.9046 20.289 30.2452C19.9743 31.5857 19.2617 32.7999 18.2446 33.7281C19.5833 34.3068 20.7998 35.1346 21.8294 36.1675C22.8589 35.1346 24.0754 34.3068 25.4141 33.7281C24.397 32.7999 23.6844 31.5857 23.3697 30.2452C23.055 28.9046 23.153 27.5002 23.6508 26.2163C24.1486 24.9324 25.023 23.8291 26.1591 23.051C27.2953 22.273 28.6401 21.8566 30.0171 21.8566C31.3941 21.8566 32.739 22.273 33.8751 23.051C35.0113 23.8291 35.8856 24.9324 36.3834 26.2163C36.8813 27.5002 36.9793 28.9046 36.6646 30.2452C36.3499 31.5857 35.6372 32.7999 34.6201 33.7281C36.4843 34.5287 38.1054 35.8049 39.3213 37.429ZM4.63443 21.5894C4.7779 21.697 4.94116 21.7753 5.11488 21.8198C5.28861 21.8643 5.4694 21.8742 5.64693 21.8488C5.82447 21.8235 5.99527 21.7634 6.14958 21.672C6.3039 21.5807 6.4387 21.4598 6.54631 21.3163C7.37313 20.2139 8.44528 19.3191 9.67784 18.7028C10.9104 18.0865 12.2695 17.7657 13.6476 17.7657C15.0256 17.7657 16.3847 18.0865 17.6173 18.7028C18.8498 19.3191 19.922 20.2139 20.7488 21.3163C20.876 21.4859 21.041 21.6236 21.2306 21.7184C21.4202 21.8132 21.6293 21.8626 21.8413 21.8626C22.0533 21.8626 22.2624 21.8132 22.452 21.7184C22.6417 21.6236 22.8066 21.4859 22.9338 21.3163C23.7606 20.2139 24.8328 19.3191 26.0653 18.7028C27.2979 18.0865 28.657 17.7657 30.0351 17.7657C31.4131 17.7657 32.7722 18.0865 34.0048 18.7028C35.2373 19.3191 36.3095 20.2139 37.1363 21.3163C37.244 21.4598 37.3789 21.5806 37.5334 21.672C37.6878 21.7633 37.8587 21.8233 38.0363 21.8486C38.2139 21.8739 38.3947 21.8639 38.5685 21.8193C38.7423 21.7747 38.9056 21.6963 39.049 21.5886C39.1925 21.4809 39.3134 21.346 39.4047 21.1915C39.496 21.0371 39.556 20.8662 39.5813 20.6886C39.6066 20.511 39.5966 20.3301 39.552 20.1564C39.5074 19.9826 39.429 19.8193 39.3213 19.6759C38.112 18.0551 36.4995 16.7792 34.644 15.975C35.6611 15.0467 36.3738 13.8326 36.6885 12.492C37.0032 11.1515 36.9052 9.74707 36.4073 8.46319C35.9095 7.1793 35.0352 6.07593 33.899 5.29789C32.7629 4.51986 31.418 4.10352 30.041 4.10352C28.664 4.10352 27.3192 4.51986 26.183 5.29789C25.0469 6.07593 24.1725 7.1793 23.6747 8.46319C23.1769 9.74707 23.0789 11.1515 23.3936 12.492C23.7083 13.8326 24.4209 15.0467 25.438 15.975C24.0993 16.5537 22.8828 17.3815 21.8533 18.4144C20.8237 17.3815 19.6072 16.5537 18.2685 15.975C19.2856 15.0467 19.9982 13.8326 20.3129 12.492C20.6276 11.1515 20.5296 9.74707 20.0318 8.46319C19.534 7.1793 18.6596 6.07593 17.5235 5.29789C16.3873 4.51986 15.0425 4.10352 13.6655 4.10352C12.2885 4.10352 10.9436 4.51986 9.80748 5.29789C8.67133 6.07593 7.79697 7.1793 7.29916 8.46319C6.80135 9.74707 6.70336 11.1515 7.01804 12.492C7.33273 13.8326 8.04538 15.0467 9.06247 15.975C7.19826 16.7763 5.57714 18.053 4.36131 19.6776C4.2537 19.821 4.17541 19.9843 4.13091 20.158C4.0864 20.3317 4.07654 20.5125 4.10191 20.6901C4.12727 20.8676 4.18735 21.0384 4.27872 21.1927C4.37009 21.347 4.49096 21.4818 4.63443 21.5894Z" fill="#FF4C00"/>
</g>
<defs>
<clipPath id="clip0_1_15621">
<rect width="43.7" height="43.7" fill="white"/>
</clipPath>
</defs>
</svg>
