<svg width="16" height="16" viewBox="0 0 16 16" fill="none" xmlns="http://www.w3.org/2000/svg">
<path d="M7.60849 0C6.10367 0 4.63265 0.44623 3.38144 1.28226C2.13023 2.11829 1.15503 3.30657 0.579165 4.69684C0.00329664 6.08711 -0.147377 7.61692 0.146198 9.09282C0.439773 10.5687 1.16441 11.9244 2.22848 12.9885C3.29254 14.0526 4.64824 14.7772 6.12415 15.0708C7.60005 15.3643 9.12986 15.2137 10.5201 14.6378C11.9104 14.0619 13.0987 13.0867 13.9347 11.8355C14.7707 10.5843 15.217 9.1133 15.217 7.60848C15.2148 5.59124 14.4125 3.65723 12.9861 2.23083C11.5597 0.80442 9.62573 0.00213024 7.60849 0ZM10.9489 6.26676L6.85203 10.3636C6.79767 10.418 6.73312 10.4612 6.66207 10.4907C6.59102 10.5201 6.51486 10.5353 6.43795 10.5353C6.36104 10.5353 6.28488 10.5201 6.21383 10.4907C6.14278 10.4612 6.07823 10.418 6.02387 10.3636L4.26807 8.60783C4.15825 8.49801 4.09655 8.34906 4.09655 8.19375C4.09655 8.03844 4.15825 7.88949 4.26807 7.77967C4.37789 7.66985 4.52684 7.60816 4.68215 7.60816C4.83746 7.60816 4.9864 7.66985 5.09622 7.77967L6.43795 9.12213L10.1207 5.4386C10.1751 5.38422 10.2397 5.34109 10.3107 5.31166C10.3818 5.28223 10.4579 5.26709 10.5348 5.26709C10.6117 5.26709 10.6879 5.28223 10.7589 5.31166C10.83 5.34109 10.8945 5.38422 10.9489 5.4386C11.0033 5.49298 11.0464 5.55753 11.0758 5.62858C11.1053 5.69963 11.1204 5.77578 11.1204 5.85268C11.1204 5.92958 11.1053 6.00573 11.0758 6.07678C11.0464 6.14782 11.0033 6.21238 10.9489 6.26676Z" fill="#FF4C00"/>
</svg>
